<svg xmlns="http://www.w3.org/2000/svg" width="512" height="512" fill="none"><path fill="#fff" d="M81.528 390.647c-6.008-3.607-11.34-7.183-15.898-12.213a56.504 56.504 0 0 1-11.841-20.405c-2.808-8.602-2.8-17.903-2.79-29.517V183.489c-.01-11.614-.018-20.914 2.79-29.517a56.503 56.503 0 0 1 11.841-20.405c4.556-5.028 9.885-8.602 15.888-12.206 3.616-2.231 7.917-4.69 12.867-7.52L212.41 46.353c5.638-3.224 10.467-5.985 14.67-8.14 5.666-3.034 11.072-5.547 17.27-6.853a56.5 56.5 0 0 1 23.297 0c6.198 1.306 11.604 3.82 17.271 6.853 4.203 2.155 9.032 4.917 14.672 8.141l118.025 67.487c4.949 2.83 9.25 5.289 12.865 7.519 6.004 3.605 11.333 7.179 15.889 12.207a56.5 56.5 0 0 1 11.841 20.405c2.808 8.602 2.8 17.903 2.79 29.517l-.001 2.116v140.791l.001 2.116c.01 11.614.018 20.915-2.79 29.517a56.487 56.487 0 0 1-11.842 20.405c-4.558 5.031-9.89 8.606-15.899 12.213-3.611 2.227-7.904 4.683-12.846 7.508l-.008.005-118.02 67.483c-5.637 3.224-10.465 5.985-14.668 8.14-5.67 3.036-11.078 5.551-17.28 6.858a56.514 56.514 0 0 1-23.297 0c-6.201-1.307-11.61-3.822-17.28-6.859-4.202-2.154-9.029-4.914-14.665-8.137L94.382 398.158c-4.945-2.827-9.241-5.283-12.854-7.511Z"/><path fill="#99E099" d="M256 161.5h175.5v189H256z"/><path fill="#FAAAFA" d="M80.5 303.25H256v148.5L80.5 350.5v-47.25Z"/><path fill="#FAF5AA" d="M80.5 242.5H256v54H80.5zM256 347.125h175.5L256 451.75V347.125Z"/><path fill="#C1ADFF" d="M256 60.25 431.5 161.5h-351L256 60.25Z"/><path fill="#FFCB8F" d="M80.5 161.5H256v81H80.5z"/><path fill="#110529" stroke="#110529" stroke-width="1.125" d="M247.766 47.567a39.936 39.936 0 0 1 16.467 0c3.662.772 7.214 2.265 12.017 4.795l.978.52.01.006c3.886 1.986 8.472 4.608 14.428 8.013l117.523 67.201c5.164 2.952 9.287 5.31 12.678 7.405l.006.004c5.743 3.444 9.353 6.01 12.223 9.177a39.934 39.934 0 0 1 8.37 14.423c1.964 6.019 1.972 12.76 1.972 26.494v140.791c0 13.734-.008 20.475-1.972 26.494a39.934 39.934 0 0 1-8.37 14.423c-2.872 3.169-6.485 5.737-12.234 9.184l-.006.004c-3.389 2.093-7.508 4.448-12.666 7.397l-117.524 67.201c-5.952 3.403-10.537 6.025-14.421 8.01l-.01.005c-5.312 2.851-9.094 4.497-13.002 5.321a39.951 39.951 0 0 1-16.467 0c-3.908-.824-7.69-2.47-13.002-5.321l-.01-.006c-3.884-1.985-8.468-4.605-14.42-8.008l-117.523-67.201c-5.158-2.949-9.278-5.304-12.667-7.398l-.006-.004-1.054-.637c-5.144-3.134-8.488-5.576-11.18-8.547a39.934 39.934 0 0 1-8.37-14.423c-1.964-6.019-1.972-12.76-1.972-26.494V185.605c0-13.734.008-20.475 1.972-26.494a39.934 39.934 0 0 1 8.37-14.423c2.87-3.167 6.48-5.733 12.223-9.177l.006-.004c3.392-2.096 7.514-4.453 12.678-7.405l117.523-67.2c5.956-3.405 10.543-6.028 14.429-8.014l.009-.005c5.308-2.848 9.088-4.493 12.994-5.316ZM93.438 348.958l.282.162 148.255 85.104.842.483V309.475H93.437v39.483Zm175.746 85.748.841-.483 121.357-69.662 1.83-1.051H269.184v71.196Zm0-97.089h149.378V174.388H269.184v163.229ZM93.437 283.582h149.38v-28.143H93.437v28.143Zm0-54.035h149.38v-55.159H93.437v55.159ZM255.72 69.887l-135.109 77.557-1.829 1.051h274.436l-1.829-1.051L256.28 69.888l-.28-.161-.28.16Z"/></svg>